<svg xmlns="http://www.w3.org/2000/svg">
<symbol id="floppy" viewBox="0 0 22 21">
<path fill="#000" d="M.5 0h1.615v1.615H.5zM.5 1.615h1.615V3.23H.5zM.5 3.23h1.615v1.615H.5zM.5 4.846h1.615v1.615H.5zM.5 6.462h1.615v1.615H.5zM.5 8.077h1.615v1.615H.5zM.5 9.692h1.615v1.615H.5zM.5 11.308h1.615v1.615H.5zM.5 12.923h1.615v1.615H.5zM.5 14.538h1.615v1.615H.5zM.5 16.154h1.615v1.615H.5zM.5 17.77h1.615v1.615H.5zM.5 19.385h1.615V21H.5zM18.27 0v1.615h-1.616V0zM16.654 0v1.615h-1.615V0zM15.039 0v1.615h-1.615V0zM13.423 0v1.615h-1.615V0zM11.808 0v1.615h-1.615V0zM10.192 0v1.615H8.577V0zM8.577 0v1.615H6.962V0zM6.962 0v1.615H5.347V0zM5.346 0v1.615H3.731V0zM3.73 0v1.615H2.117V0zM19.885 1.616V3.23H18.27V1.616zM5.347 3.23v1.615H3.732V3.23zM5.346 1.615V3.23H3.731V1.615zM5.346 4.846V6.46H3.73V4.846zM16.654 3.23v1.616H15.04V3.23zM16.654 1.615V3.23h-1.615V1.615zM16.653 4.846V6.46H15.04V4.846zM13.424 3.23v1.615h-1.615V3.23zM13.423 1.615V3.23h-1.615V1.615zM13.423 4.846V6.46h-1.615V4.846zM16.654 6.462v1.615h-1.615V6.462zM15.038 6.462v1.615h-1.615V6.462zM13.423 6.462v1.615h-1.615V6.462zM11.808 6.462v1.615h-1.615V6.462zM10.192 6.462v1.615H8.577V6.462zM8.577 6.462v1.615H6.962V6.462zM6.961 6.462v1.615H5.346V6.462zM5.346 6.462v1.615H3.731V6.462zM18.269 11.307v1.615h-1.615v-1.615zM16.653 11.308v1.615h-1.615v-1.615z"/><path fill="#000" d="M15.038 11.308v1.615h-1.615v-1.615zM13.423 11.307v1.615h-1.615v-1.615zM11.807 11.308v1.615h-1.615v-1.615zM10.192 11.307v1.615H8.577v-1.615zM8.576 11.308v1.615H6.961v-1.615zM6.961 11.308v1.615H5.346v-1.615zM5.346 11.307v1.615H3.73v-1.615zM18.27 12.923v1.615h-1.616v-1.615zM5.346 12.923v1.615H3.731v-1.615z"/><path fill="#000" d="M18.27 14.538v1.615h-1.616v-1.615zM5.346 14.538v1.615H3.731v-1.615zM18.27 16.154v1.615h-1.615v-1.615zM5.346 16.154v1.615H3.731v-1.615zM5.346 17.77v1.614H3.73V17.77zM18.269 17.77v1.614h-1.615V17.77zM19.884 19.385V21H18.27v-1.615zM18.27 19.384V21h-1.616v-1.615zM16.654 19.385V21h-1.615v-1.615zM15.038 19.385V21h-1.615v-1.615zM13.423 19.385V21h-1.615v-1.615zM11.807 19.385V21h-1.615v-1.615zM10.192 19.384V21H8.577v-1.615zM8.577 19.385V21H6.962v-1.615zM6.961 19.385V21H5.346v-1.615zM5.346 19.385V21H3.731v-1.615zM3.73 19.385V21H2.117v-1.615zM21.5 21h-1.615v-1.615H21.5zM21.5 19.385h-1.615V17.77H21.5zM21.5 17.769h-1.615v-1.615H21.5z"/><path fill="#000" d="M21.5 16.155h-1.615V14.54H21.5zM21.5 14.538h-1.615v-1.615H21.5zM21.5 12.923h-1.615v-1.615H21.5zM21.5 11.307h-1.615V9.692H21.5z"/><path fill="#000" d="M21.5 9.693h-1.615V8.078H21.5zM21.5 8.077h-1.615V6.462H21.5zM21.5 6.462h-1.615V4.847H21.5zM21.5 4.845h-1.615V3.23H21.5z"/>
</symbol>
</svg>